<?xml version="1.0" standalone="no"?>
<!DOCTYPE svg PUBLIC "-//W3C//DTD SVG 20010904//EN"
 "http://www.w3.org/TR/2001/REC-SVG-20010904/DTD/svg10.dtd">
<svg version="1.0" xmlns="http://www.w3.org/2000/svg"
 width="600.000000pt" height="200.000000pt" viewBox="0 0 600.000000 200.000000"
 preserveAspectRatio="xMidYMid meet">

<g transform="translate(0.000000,200.000000) scale(0.100000,-0.100000)"
fill="#000000" stroke="none">
<path d="M0 1000 l0 -1000 3000 0 3000 0 0 1000 0 1000 -3000 0 -3000 0 0
-1000z m5098 708 c17 -17 15 -47 -3 -54 -10 -4 -11 -9 -4 -17 5 -7 16 -21 24
-32 21 -30 35 -8 38 57 l2 56 30 -5 c38 -7 37 -6 25 -37 -5 -15 -10 -45 -10
-67 l0 -39 -54 0 c-47 0 -58 4 -85 31 -26 26 -31 28 -31 12 0 -11 5 -24 12
-31 9 -9 3 -12 -29 -12 -22 0 -57 -7 -77 -15 -32 -14 -36 -14 -36 0 0 17 -18
19 -40 4 -11 -8 -12 -12 -2 -16 16 -6 6 -23 -14 -23 -12 0 -15 12 -13 58 1 32
-1 64 -6 71 -8 13 10 31 31 31 6 0 32 -22 58 -50 26 -27 52 -50 57 -50 13 0
11 107 -3 116 -17 11 18 22 73 23 25 1 50 -4 57 -11z m267 -48 c17 -19 17 -21
0 -40 -24 -26 -37 -25 -30 3 7 28 -8 52 -28 44 -41 -15 -21 -107 23 -107 26 0
26 -17 1 -25 -50 -15 -101 24 -101 77 0 40 32 68 78 68 26 0 45 -7 57 -20z
m-4535 -10 c0 -13 -7 -20 -20 -20 -11 0 -20 -4 -20 -10 0 -5 9 -10 19 -10 28
0 37 -20 12 -27 -26 -7 -28 -33 -3 -33 29 0 50 21 71 73 18 43 23 47 41 37 12
-6 26 -34 38 -72 l18 -62 12 56 c15 65 34 87 57 68 8 -7 15 -20 15 -30 0 -28
12 -31 37 -8 17 16 26 19 35 10 8 -8 7 -27 -7 -77 -15 -57 -20 -65 -41 -65
-28 0 -28 -2 -8 46 11 27 12 35 3 27 -20 -19 -39 -16 -48 9 -7 20 -9 19 -15
-14 -5 -29 -11 -36 -29 -35 -12 0 -30 -3 -39 -7 -15 -7 -18 -3 -18 18 0 21 -5
26 -24 26 -13 0 -26 -5 -28 -12 -2 -6 -13 -12 -24 -13 -10 -1 -36 -6 -56 -10
-36 -7 -37 -6 -47 32 -26 96 -26 99 11 110 49 16 58 15 58 -7z m-120 -15 c0
-7 -5 -15 -11 -17 -8 -3 -6 -16 5 -42 20 -48 20 -76 1 -76 -9 0 -24 20 -35 45
-14 32 -25 45 -40 45 -34 0 -22 25 23 47 44 22 57 21 57 -2z m4058 -50 c4 -29
3 -29 -15 -12 -41 37 -80 11 -42 -29 24 -26 67 -32 87 -12 20 20 26 0 8 -27
-45 -69 -136 -43 -136 40 0 34 43 77 73 73 16 -2 23 -11 25 -33z m706 16 c15
-16 15 -23 2 -81 -8 -35 -13 -67 -10 -72 9 -14 -7 -9 -38 13 -23 16 -27 24
-16 30 10 6 9 11 -7 23 -26 20 -33 20 -37 -1 -3 -14 -4 -14 -16 -1 -11 13 -5
20 38 48 27 18 50 38 50 46 0 19 14 17 34 -5z m-4469 -166 c126 -33 231 -121
288 -243 30 -63 32 -73 32 -182 0 -111 -1 -118 -33 -183 -44 -90 -119 -165
-207 -208 -67 -33 -74 -34 -185 -34 -109 0 -119 2 -183 32 -122 58 -208 161
-242 288 -82 318 213 612 530 530z m4373 -307 l2 -198 -40 0 c-38 0 -40 1 -40
33 0 17 -6 43 -13 57 -8 15 -11 34 -6 45 11 29 11 189 -1 219 -12 32 -29 33
-65 4 -21 -16 -41 -22 -85 -22 -44 0 -64 6 -85 22 -36 29 -53 28 -65 -4 -12
-30 -12 -190 -1 -219 19 -48 -40 -74 -79 -35 -26 26 -25 52 4 87 35 42 46 68
46 105 0 42 -20 71 -46 66 -16 -3 -19 -11 -16 -47 2 -35 -3 -49 -28 -77 -35
-40 -45 -71 -36 -118 8 -41 66 -96 101 -96 13 0 27 -5 30 -10 5 -7 -19 -10
-72 -8 l-78 3 -3 185 c-1 101 0 190 3 197 3 11 63 13 287 11 l283 -3 3 -197z
m-334 141 c38 -30 134 -30 172 0 15 11 31 21 35 21 29 0 33 -192 6 -234 -55
-84 -184 -89 -246 -10 -18 23 -21 40 -21 129 0 125 5 133 54 94z m-114 -54 c0
-30 -6 -47 -21 -61 -33 -29 -51 -78 -40 -108 11 -28 47 -56 73 -56 19 0 24
-15 8 -25 -15 -9 -76 21 -94 46 -9 13 -16 38 -16 57 0 34 24 92 39 92 17 0 32
55 22 82 -11 30 -4 43 16 27 7 -6 13 -30 13 -54z m-3183 -103 c16 -10 13 -102
-3 -102 -7 0 -14 7 -18 15 -3 8 -10 15 -16 15 -5 0 -10 -7 -10 -15 0 -8 -7
-15 -15 -15 -12 0 -15 13 -15 55 l0 55 33 0 c17 0 38 -4 44 -8z m123 -2 c0 -5
-14 -10 -31 -10 -35 0 -36 -23 -1 -28 30 -5 28 -22 -3 -22 -14 0 -25 -4 -25
-10 0 -5 14 -10 30 -10 17 0 30 -4 30 -10 0 -5 -20 -10 -45 -10 l-45 0 0 55 0
55 45 0 c25 0 45 -4 45 -10z m95 4 c27 -11 38 -53 20 -80 -14 -21 -14 -24 0
-24 20 0 19 -16 -1 -24 -9 -4 -24 0 -34 9 -9 8 -20 15 -25 15 -18 0 -45 34
-45 56 0 13 10 30 22 38 24 17 38 19 63 10z m77 -36 c2 -30 8 -43 18 -43 10 0
16 13 18 43 2 28 8 42 18 42 17 0 20 -61 4 -91 -12 -22 -59 -26 -78 -7 -18 18
-16 98 2 98 10 0 16 -14 18 -42z m168 33 c0 -5 -12 -11 -27 -13 -34 -4 -33
-22 2 -26 32 -4 23 -22 -11 -22 -14 0 -22 -4 -19 -10 3 -5 17 -10 31 -10 13 0
24 -4 24 -10 0 -5 -18 -10 -40 -10 l-40 0 0 55 0 55 40 0 c22 0 40 -4 40 -9z
m98 -4 c15 -17 11 -97 -4 -97 -7 0 -14 7 -18 15 -3 8 -10 15 -16 15 -5 0 -10
-7 -10 -15 0 -8 -7 -15 -15 -15 -12 0 -15 13 -15 55 l0 55 34 0 c18 0 38 -6
44 -13z m62 -42 c0 -42 -3 -55 -15 -55 -12 0 -15 13 -15 55 0 42 3 55 15 55
12 0 15 -13 15 -55z m63 23 l14 -33 17 33 c27 51 46 42 46 -23 0 -42 -3 -55
-15 -55 -10 0 -15 10 -16 28 0 27 -1 27 -11 5 -14 -30 -24 -29 -42 5 l-15 27
-1 -32 c0 -18 -4 -33 -10 -33 -5 0 -10 25 -10 55 0 65 21 76 43 23z m127 -23
c0 -42 -3 -55 -15 -55 -12 0 -15 13 -15 55 0 42 3 55 15 55 12 0 15 -13 15
-55z m100 45 c0 -5 -11 -10 -25 -10 -16 0 -25 -6 -25 -15 0 -9 9 -15 25 -15
14 0 25 -4 25 -10 0 -5 -11 -10 -25 -10 -14 0 -25 -4 -25 -10 0 -5 11 -10 25
-10 14 0 25 -4 25 -10 0 -5 -18 -10 -40 -10 l-40 0 0 55 0 55 40 0 c22 0 40
-4 40 -10z m71 -22 l28 -33 1 33 c0 17 5 32 10 32 6 0 10 -25 10 -55 0 -64
-14 -71 -47 -22 l-23 32 0 -33 c0 -22 -5 -32 -15 -32 -12 0 -15 13 -15 55 0
65 11 69 51 23z m149 23 c0 -5 -7 -11 -15 -15 -10 -3 -15 -19 -15 -46 0 -29
-4 -40 -15 -40 -11 0 -15 12 -15 45 0 33 -4 45 -15 45 -8 0 -15 5 -15 10 0 6
20 10 45 10 25 0 45 -4 45 -9z m104 -7 c37 -37 11 -94 -43 -94 -48 0 -69 66
-29 94 29 20 52 20 72 0z m114 -3 c3 -10 -2 -12 -22 -7 -33 8 -34 -7 0 -22 30
-14 30 -55 1 -60 -27 -5 -69 7 -62 18 4 6 17 7 31 4 32 -8 31 10 -1 24 -26 12
-34 47 -12 56 22 9 60 1 65 -13z m142 -1 c24 -24 25 -38 4 -68 -11 -16 -25
-22 -55 -22 l-39 0 0 55 0 55 35 0 c22 0 43 -8 55 -20z m110 10 c0 -5 -11 -10
-25 -10 -16 0 -25 -6 -25 -15 0 -9 9 -15 25 -15 14 0 25 -4 25 -10 0 -5 -11
-10 -25 -10 -14 0 -25 -4 -25 -10 0 -5 14 -10 30 -10 17 0 30 -4 30 -10 0 -5
-20 -10 -45 -10 l-45 0 0 55 0 55 40 0 c22 0 40 -4 40 -10z m138 -9 c3 -10 -2
-12 -22 -7 -33 8 -34 -7 0 -22 30 -14 30 -55 1 -60 -27 -5 -69 7 -62 18 4 6
17 7 31 4 32 -8 31 10 -1 24 -26 12 -34 47 -12 56 22 9 60 1 65 -13z m112 -1
c24 -24 25 -38 4 -68 -28 -40 -104 -18 -104 30 0 24 35 58 60 58 11 0 29 -9
40 -20z m247 -17 l10 -38 10 35 c5 19 15 35 23 35 7 0 19 -16 25 -35 l12 -35
7 32 c7 32 22 50 33 40 10 -10 -28 -107 -43 -107 -7 0 -17 15 -22 33 -9 31
-11 30 -26 -15 -10 -32 -34 -19 -48 25 -11 30 -20 42 -34 42 -15 0 -20 -8 -22
-42 -2 -24 -7 -43 -12 -43 -5 0 -10 19 -12 43 -3 42 -3 42 -45 45 -34 2 -43 0
-43 -12 0 -10 9 -16 25 -16 14 0 25 -4 25 -10 0 -5 -11 -10 -25 -10 -18 0 -25
-5 -25 -20 0 -11 -7 -20 -15 -20 -12 0 -15 13 -15 55 l0 55 104 0 104 0 9 -37z
m219 -10 c11 -27 21 -51 22 -55 2 -5 -3 -8 -12 -8 -9 0 -16 5 -16 10 0 14 -43
13 -57 -1 -6 -6 -15 -10 -21 -8 -13 6 35 109 51 109 8 0 23 -21 33 -47z m111
39 c16 -10 13 -102 -3 -102 -7 0 -14 7 -18 15 -3 8 -10 15 -16 15 -5 0 -10 -7
-10 -15 0 -8 -7 -15 -15 -15 -12 0 -15 13 -15 55 l0 55 33 0 c17 0 38 -4 44
-8z m123 -2 c0 -5 -14 -10 -31 -10 -35 0 -36 -23 -1 -28 30 -5 28 -22 -3 -22
-14 0 -25 -4 -25 -10 0 -5 14 -10 30 -10 17 0 30 -4 30 -10 0 -5 -20 -10 -45
-10 l-45 0 0 55 0 55 45 0 c25 0 45 -4 45 -10z m222 -70 c20 0 20 -1 3 -20
-12 -13 -15 -27 -11 -44 6 -25 5 -25 -20 -14 -20 9 -30 9 -45 0 -26 -16 -27
-16 -21 13 3 16 -2 33 -13 45 -17 19 -17 20 3 20 12 0 29 11 39 26 l16 26 14
-26 c8 -16 22 -26 35 -26z m1240 0 c20 0 20 -1 3 -20 -12 -13 -15 -27 -11 -44
6 -25 5 -25 -20 -14 -20 9 -30 9 -45 0 -26 -16 -27 -16 -21 13 3 16 -2 33 -13
45 -17 19 -17 20 3 20 12 0 29 11 39 26 l16 26 14 -26 c8 -16 22 -26 35 -26z
m-4271 31 c10 6 22 0 42 -23 15 -17 27 -35 27 -40 0 -16 -51 -77 -70 -83 -24
-8 -70 11 -70 29 0 7 -7 16 -15 20 -23 8 -18 41 12 74 20 23 31 29 43 22 9 -5
22 -5 31 1z m-1186 -11 c5 -8 11 -7 21 1 17 14 44 5 44 -16 0 -8 7 -15 15 -15
10 0 15 -10 15 -29 0 -16 -6 -31 -15 -35 -8 -3 -15 -12 -15 -20 0 -33 -86 -34
-104 -1 -6 10 -17 25 -23 33 -18 19 -17 24 13 60 29 34 39 38 49 22z m4825
-90 c34 0 58 8 93 30 l46 29 11 -37 c13 -49 13 -66 -4 -107 -16 -38 -60 -65
-106 -65 -26 0 -30 3 -30 29 0 18 8 35 23 45 19 15 19 16 2 10 -26 -9 -45 -9
-70 0 -18 7 -18 6 3 -12 12 -12 22 -32 22 -47 0 -27 -1 -27 -47 -22 -79 9
-117 77 -94 165 l12 41 46 -29 c35 -22 59 -30 93 -30z m-2604 -31 c3 -6 1 -16
-5 -22 -7 -7 -12 -6 -17 6 -9 26 -51 21 -70 -8 -11 -17 -14 -35 -10 -59 8 -43
28 -59 66 -54 16 3 30 1 30 -4 0 -17 -80 -8 -100 12 -13 13 -20 33 -20 60 0
53 27 80 79 80 22 0 43 -5 47 -11z m259 1 c3 -5 -1 -10 -10 -10 -9 0 -13 5
-10 10 3 6 8 10 10 10 2 0 7 -4 10 -10z m475 -12 c-1 -21 -2 -21 -11 -5 -5 9
-17 17 -24 17 -19 0 -21 -120 -3 -138 9 -9 5 -12 -17 -12 l-30 0 3 75 c4 78
-6 94 -34 58 -12 -17 -13 -16 -14 5 0 21 4 22 65 22 61 0 65 -1 65 -22z m1705
-62 c22 -54 52 -66 165 -66 99 0 146 14 154 46 5 17 13 22 32 21 34 -3 43 20
12 32 -21 9 -19 10 13 10 35 1 37 -1 48 -43 6 -24 13 -51 17 -60 6 -15 -22
-16 -310 -16 -346 0 -326 -4 -305 61 6 19 12 40 15 47 2 8 26 12 72 12 l69 0
18 -44z m-2333 -19 l3 -53 -35 -1 c-44 -1 -60 12 -60 48 0 35 24 59 60 59 27
0 28 -2 32 -53z m58 41 c0 -9 3 -9 12 0 15 15 38 16 38 1 0 -6 -7 -9 -15 -5
-19 7 -35 -23 -35 -63 0 -54 -18 -33 -22 24 -2 39 1 55 10 55 6 0 12 -5 12
-12z m98 -46 c2 -40 0 -52 -12 -52 -10 0 -15 15 -18 55 -2 45 0 55 12 53 11
-2 16 -19 18 -56z m109 38 c4 -12 3 -12 -5 -2 -5 8 -18 12 -28 10 -15 -2 -19
-12 -19 -43 0 -37 2 -40 28 -40 15 1 27 -3 27 -7 0 -14 -58 -8 -74 8 -20 20
-20 44 0 72 18 26 65 27 71 2z m113 -23 c0 -24 5 -48 11 -54 14 -14 -71 -16
-88 -1 -18 15 -16 58 4 80 9 10 29 18 45 18 26 0 28 -2 28 -43z m362 26 c38
-34 15 -93 -37 -93 -51 0 -73 53 -38 92 20 22 51 23 75 1z m119 7 c13 -7 19
-21 19 -43 0 -40 -15 -57 -50 -57 -35 0 -50 17 -50 57 0 45 38 66 81 43z m137
-35 c2 -22 9 -46 15 -54 9 -11 7 -13 -8 -10 -15 3 -21 15 -25 49 -3 31 -10 45
-20 45 -11 0 -16 -13 -18 -47 -4 -70 -29 -65 -34 6 l-3 54 45 -2 c45 -1 45 -1
48 -41z m110 25 c4 -12 2 -13 -9 -2 -7 6 -19 12 -26 12 -23 0 -14 -26 13 -38
38 -18 30 -56 -13 -60 -27 -3 -33 0 -32 15 0 10 3 13 6 6 6 -17 43 -17 43 0 0
8 -11 19 -25 25 -24 11 -33 40 -18 56 12 12 56 2 61 -14z m-640 -27 c-10 -2
-28 -2 -40 0 -13 2 -5 4 17 4 22 1 32 -1 23 -4z m1740 -318 c39 -22 51 -35 48
-48 -3 -14 0 -16 17 -11 47 16 117 -9 117 -41 0 -20 6 -19 30 5 25 25 95 27
122 3 24 -22 24 -77 -2 -103 -42 -42 -110 -34 -136 17 -10 22 -11 22 -30 3
-30 -30 -74 -34 -111 -11 -34 21 -39 43 -33 134 1 15 -2 27 -7 27 -14 0 -65
-92 -59 -106 7 -20 0 -18 -42 11 -20 14 -30 25 -22 25 16 0 75 89 65 98 -3 4
-15 0 -26 -7 -27 -16 -34 -9 -17 18 15 25 17 25 86 -14z m-4124 -2 c8 -17 16
-20 43 -16 38 6 62 -9 64 -41 1 -17 2 -17 6 -3 2 9 13 17 24 17 16 0 19 -8 20
-57 0 -49 2 -54 10 -33 6 13 7 42 4 62 -7 37 -6 38 22 38 15 -1 37 0 47 2 14
2 22 -4 26 -22 6 -24 7 -24 14 8 8 34 17 40 34 19 8 -9 7 -20 -2 -37 -11 -23
-10 -27 18 -51 27 -23 29 -28 17 -43 -13 -15 -17 -15 -44 11 l-30 28 7 -27 c5
-23 3 -28 -13 -28 -18 0 -30 23 -44 85 -4 15 -5 13 -6 -7 -3 -72 -57 -112 -93
-68 -10 12 -18 34 -18 49 l-1 26 -15 -27 c-16 -31 -59 -46 -83 -31 -20 12 -26
65 -11 93 9 16 8 20 -5 20 -8 0 -15 7 -15 15 0 8 -5 15 -11 15 -7 0 -8 -7 -4
-17 17 -46 16 -69 -5 -88 -20 -18 -24 -18 -48 -4 -17 9 -28 25 -30 42 -4 35
15 35 29 0 14 -35 24 -12 11 25 -5 16 -6 37 -1 50 7 19 15 23 41 20 22 -2 36
-10 42 -25z m4710 11 c4 -9 3 -20 0 -23 -4 -3 -9 0 -11 7 -3 6 -14 12 -25 12
-35 0 -13 -25 27 -30 24 -3 43 -13 52 -27 14 -21 13 -25 -16 -53 -38 -38 -74
-38 -80 0 -3 25 -3 25 18 6 11 -10 27 -16 36 -12 28 10 10 31 -31 36 -21 3
-45 9 -51 13 -21 13 -15 44 13 66 32 25 60 27 68 5z m-4270 -45 c51 -56 53
-61 32 -78 -11 -9 -17 -8 -29 9 -17 24 -47 17 -47 -11 0 -12 -7 -19 -20 -19
-18 0 -20 7 -20 68 0 102 15 107 84 31z m4166 -13 c0 -13 7 -43 15 -66 8 -24
13 -45 11 -48 -3 -2 -30 10 -62 27 -31 18 -58 30 -61 27 -8 -8 17 -76 28 -76
6 0 7 -4 4 -10 -3 -5 -13 -10 -21 -10 -8 0 -13 4 -10 8 7 12 -24 112 -35 112
-22 0 -6 19 21 25 22 5 40 1 65 -14 27 -16 35 -17 35 -6 0 7 -7 20 -15 28 -11
12 -12 17 -2 20 23 10 27 7 27 -17z"/>
<path d="M5030 1681 c0 -17 5 -31 10 -31 6 0 10 11 10 24 0 14 -4 28 -10 31
-6 4 -10 -7 -10 -24z"/>
<path d="M4850 1597 c0 -19 4 -25 15 -21 8 4 15 10 15 14 0 4 -7 13 -15 20
-13 11 -15 8 -15 -13z"/>
<path d="M910 1590 c0 -5 5 -10 11 -10 5 0 7 5 4 10 -3 6 -8 10 -11 10 -2 0
-4 -4 -4 -10z"/>
<path d="M5408 1556 c-13 -10 -15 -15 -6 -24 18 -18 25 -15 30 13 6 28 1 30
-24 11z"/>
<path d="M795 1328 c-154 -80 -255 -242 -255 -409 0 -80 17 -129 54 -155 15
-11 43 -31 63 -46 21 -17 49 -28 67 -28 17 0 49 -7 71 -15 23 -8 77 -14 125
-14 99 -1 147 17 203 73 20 20 41 36 47 36 6 0 9 4 6 9 -11 17 5 39 25 34 20
-6 27 11 9 22 -15 10 -12 35 5 35 16 0 20 12 8 24 -4 4 -13 38 -19 76 -7 38
-22 89 -35 115 l-23 46 19 47 c10 26 19 65 19 87 1 34 -2 40 -21 43 -33 5 -89
-26 -136 -74 -39 -41 -46 -44 -95 -44 l-53 0 7 63 c5 52 3 66 -11 80 -21 21
-31 21 -80 -5z m79 -14 c3 -9 6 -25 5 -37 l0 -22 -9 23 c-12 28 -24 28 -51 1
-23 -23 -84 -147 -77 -155 3 -2 28 1 56 7 l50 12 11 56 10 56 -5 -57 c-6 -60
2 -72 24 -38 9 15 23 20 57 20 40 0 49 5 85 43 43 47 109 83 134 74 10 -4 16
-18 15 -34 0 -15 -3 -22 -6 -15 -11 28 -44 10 -88 -49 -25 -34 -45 -64 -45
-68 0 -3 18 -6 41 -6 36 0 42 4 54 30 12 29 12 28 7 -17 -3 -29 -1 -48 6 -48
21 0 44 -84 43 -159 -2 -111 -48 -188 -143 -235 -62 -31 -153 -35 -251 -11
-34 8 -74 17 -89 20 -14 3 -37 14 -50 25 -12 11 -36 30 -52 42 -105 80 -60
323 86 465 87 84 166 117 182 77z"/>
<path d="M1092 998 c-7 -7 -12 -17 -12 -22 0 -6 5 -5 12 2 17 17 38 15 60 -5
15 -13 18 -14 18 -2 0 21 -21 39 -45 39 -12 0 -26 -5 -33 -12z"/>
<path d="M862 988 c-19 -19 -14 -33 6 -15 23 21 31 21 54 0 10 -9 18 -12 18
-7 0 17 -23 34 -45 34 -12 0 -26 -5 -33 -12z"/>
<path d="M717 944 c-11 -12 3 -24 29 -24 27 0 32 15 8 24 -20 8 -29 8 -37 0z"/>
<path d="M1041 931 c-8 -5 -11 -17 -7 -28 5 -14 0 -23 -16 -31 -13 -6 -17 -11
-10 -11 7 -1 22 4 32 9 13 7 21 7 25 0 8 -13 52 -13 60 0 4 7 -2 9 -18 5 -28
-7 -46 10 -28 28 7 7 7 14 0 24 -13 15 -19 16 -38 4z"/>
<path d="M717 883 c-14 -13 -6 -23 17 -23 30 0 42 15 20 24 -20 8 -29 8 -37
-1z"/>
<path d="M737 834 c-4 -4 -7 -11 -7 -16 0 -13 50 -6 53 7 2 12 -36 19 -46 9z"/>
<path d="M5042 1148 c6 -18 28 -21 28 -4 0 9 -7 16 -16 16 -9 0 -14 -5 -12
-12z"/>
<path d="M5190 1145 c0 -9 5 -15 11 -13 6 2 11 8 11 13 0 5 -5 11 -11 13 -6 2
-11 -4 -11 -13z"/>
<path d="M5092 1079 c6 -19 70 -18 76 1 4 11 2 13 -9 5 -17 -12 -39 -13 -58
-1 -9 6 -12 5 -9 -5z"/>
<path d="M1700 1080 c0 -11 6 -20 14 -20 21 0 31 21 15 31 -22 14 -29 11 -29
-11z"/>
<path d="M1917 1083 c-13 -12 -7 -41 10 -47 21 -8 48 17 40 38 -6 16 -38 22
-50 9z"/>
<path d="M2260 1080 c0 -11 6 -20 14 -20 21 0 31 21 15 31 -22 14 -29 11 -29
-11z"/>
<path d="M2924 1075 c-8 -21 2 -45 19 -45 21 0 38 25 31 44 -8 20 -43 21 -50
1z"/>
<path d="M3186 1093 c-12 -12 -6 -63 7 -63 17 0 37 20 37 37 0 14 -34 35 -44
26z"/>
<path d="M3533 1074 c-3 -8 2 -23 11 -32 15 -15 17 -15 32 0 21 21 11 48 -16
48 -11 0 -23 -7 -27 -16z"/>
<path d="M4026 1071 c-4 -7 -5 -15 -2 -18 9 -9 19 4 14 18 -4 11 -6 11 -12 0z"/>
<path d="M4130 1080 c0 -11 6 -20 14 -20 21 0 31 21 15 31 -22 14 -29 11 -29
-11z"/>
<path d="M1435 1050 c-7 -12 2 -30 16 -30 5 0 9 9 9 20 0 21 -15 27 -25 10z"/>
<path d="M1487 1045 c-8 -18 11 -31 25 -17 11 11 3 32 -12 32 -4 0 -10 -7 -13
-15z"/>
<path d="M1406 1012 c-3 -6 -1 -14 5 -17 15 -10 25 3 12 16 -7 7 -13 7 -17 1z"/>
<path d="M1520 1005 c0 -8 5 -15 10 -15 6 0 10 7 10 15 0 8 -4 15 -10 15 -5 0
-10 -7 -10 -15z"/>
<path d="M1456 995 c-23 -24 -16 -49 15 -53 34 -4 44 20 20 49 -16 20 -18 21
-35 4z"/>
<path d="M280 1030 c0 -13 5 -20 13 -17 6 2 12 10 12 17 0 7 -6 15 -12 18 -8
2 -13 -5 -13 -18z"/>
<path d="M330 1029 c0 -24 23 -21 28 4 2 10 -3 17 -12 17 -10 0 -16 -9 -16
-21z"/>
<path d="M250 995 c0 -8 5 -15 10 -15 6 0 10 7 10 15 0 8 -4 15 -10 15 -5 0
-10 -7 -10 -15z"/>
<path d="M365 1001 c-6 -11 9 -23 19 -14 9 9 7 23 -3 23 -6 0 -12 -4 -16 -9z"/>
<path d="M302 988 c-28 -28 -3 -66 33 -52 25 10 12 64 -15 64 -3 0 -11 -5 -18
-12z"/>
<path d="M4840 890 c-11 -7 -12 -12 -3 -21 14 -14 46 -4 41 13 -6 16 -20 19
-38 8z"/>
<path d="M4905 890 c-8 -13 3 -30 20 -30 20 0 30 21 14 31 -18 11 -26 11 -34
-1z"/>
<path d="M4820 835 c0 -10 10 -15 30 -15 20 0 30 5 30 15 0 10 -10 15 -30 15
-20 0 -30 -5 -30 -15z"/>
<path d="M4900 836 c0 -11 10 -16 31 -16 38 0 35 24 -4 28 -19 2 -27 -1 -27
-12z"/>
<path d="M5300 835 c0 -10 10 -15 30 -15 20 0 30 5 30 15 0 10 -10 15 -30 15
-20 0 -30 -5 -30 -15z"/>
<path d="M2571 876 c-20 -23 -10 -71 14 -71 16 0 21 8 23 43 3 45 -13 57 -37
28z"/>
<path d="M2950 869 c-16 -29 -4 -71 18 -67 23 4 31 88 8 88 -8 0 -20 -9 -26
-21z"/>
<path d="M3309 869 c-8 -16 -8 -28 0 -46 22 -47 69 -5 50 45 -11 28 -35 28
-50 1z"/>
<path d="M3434 866 c-10 -41 -1 -61 26 -61 27 0 36 20 26 61 -4 15 -14 24 -26
24 -12 0 -22 -9 -26 -24z"/>
<path d="M4916 443 c-8 -38 7 -87 27 -91 11 -2 18 7 22 30 12 65 -36 124 -49
61z"/>
<path d="M5079 438 c-4 -45 23 -108 46 -108 23 0 19 62 -6 94 -22 28 -38 34
-40 14z"/>
<path d="M750 471 c-13 -25 -13 -61 0 -61 11 0 30 42 30 66 0 20 -18 17 -30
-5z"/>
<path d="M1100 480 c0 -5 5 -10 11 -10 5 0 7 5 4 10 -3 6 -8 10 -11 10 -2 0
-4 -4 -4 -10z"/>
</g>
</svg>
